{"title":"Illegal.Everything.with.John.Stossel.(2012).HDTV.272p.H264.AAC-k","uid":7059275,"size":91901756,"categoryP":"video","categoryS":"tv_shows","magnet":"?xt=urn:btih:e2d4852f1e37af106f0f6134cd5ba0f916a40090&amp;dn=Illegal.Everything.with.John.Stossel.%282012%29.HDTV.272p.H264.AAC-k&amp;tr=udp%3A%2F%2Ftracker.openbittorrent.com%3A80&amp;tr=udp%3A%2F%2Fopen.demonii.com%3A1337&amp;tr=udp%3A%2F%2Ftracker.coppersurfer.tk%3A6969&amp;tr=udp%3A%2F%2Fexodus.desync.com%3A6969","seeders":1,"leechers":0,"uploader":"k3nd00d","files":-1,"time":1330289860,"description":"\nxxxxxxxxxxxxxxxxxxxxxxxxxxxxxxxxxxxxxxxxxxxxxxxxxxxxxxxxxxxxxxxxxxxxxxxxxxxxxxxx\n\nIllegal Everything with John Stossel\nFebruary 24, 2012 (FBN/FNC)\n\nxxxxxxxxxxxxxxxxxxxxxxxxxxxxxxxxxxxxxxxxxxxxxxxxxxxxxxxxxxxxxxxxxxxxxxxxxxxxxxxx\n\nexcerpt from John Stossel's blog:\n\nTonight, I argue that America has become a country where no one can know what is\nlegal.\n\nKids who open lemonade stands are now shutdown by police. I tried to open a\nlemonade stand legally in NYC. That was quite an adventure. It takes 65 days to\nget permission from the Department of Health and Mental Hygiene.\n\nWith government adding 80,000 pages of rules and regulations every year, it's no\nsurprise that regular people break laws without even trying.\n\nA small businessman spent 6 years in federal prison for breaking Honduran\nregulations (and, to make it worse, the Honduran government said he didn't). A\nfamily in Idaho can't build a home on their land because the EPA says it's a\nwetland-but it only resembles a wetland because a government drain malfunctioned\nand flooded it.\n\nTAXI TROUBLE; ILLEGAL FOOD; ILLEGAL DRUGS; ILLEGAL SEX\n\nOne bit of good news is that while there may be so many laws that no one knows\nif he's a lawbreaker, it has never been easier to &quot;watch the watchmen.&quot; Tiny\ncameras in our iPods and cell phones allow citizens to film law enforcement and\nhold our government accountable. But in the last few years, cops have arrested\nand jailed people for taping in public. The arrests are not legal, but they\nhappen anyway. Fortunately, arrests are caught on tape.\n\nxxxxxxxxxxxxxxxxxxxxxxxxxxxxxxxxxxxxxxxxxxxxxxxxxxxxxxxxxxxxxxxxxxxxxxxxxxxxxxxx\n\nGeneral\nFormat                           : MPEG-4\nFormat profile                   : Base Media\nCodec ID                         : isom\nFile size                        : 87.3 MiB\nDuration                         : 42mn 9s\nOverall bit rate                 : 290 Kbps\n\nVideo\nID                               : 1\nFormat                           : AVC\nFormat/Info                      : Advanced Video Codec\nFormat profile                   : &lt;a class=&quot;__cf_email__&quot; href=&quot;/cdn-cgi/l/email-protection&quot; data-cfemail=&quot;baf8dbc9dfd6d3d4dffaf688948b&quot;&gt;[email&amp;#160;protected]&lt;/a&gt;&lt;script cf-hash='f9e31' type=&quot;text/javascript&quot;&gt;\n/* &lt;![CDATA[ */!function(){try{var t=&quot;currentScript&quot;in document?document.currentScript:function(){for(var t=document.getElementsByTagName(&quot;script&quot;),e=t.length;e--;)if(t[e].getAttribute(&quot;cf-hash&quot;))return t[e]}();if(t&amp;&amp;t.previousSibling){var e,r,n,i,c=t.previousSibling,a=c.getAttribute(&quot;data-cfemail&quot;);if(a){for(e=&quot;&quot;,r=parseInt(a.substr(0,2),16),n=2;a.length-n;n+=2)i=parseInt(a.substr(n,2),16)^r,e+=String.fromCharCode(i);e=document.createTextNode(e),c.parentNode.replaceChild(e,c)}}}catch(u){}}();/* ]]&gt; */&lt;/script&gt;\nFormat settings, CABAC           : No\nFormat settings, ReFrames        : 1 frame\nCodec ID                         : avc1\nCodec ID/Info                    : Advanced Video Coding\nDuration                         : 42mn 7s\nBit rate mode                    : Variable\nBit rate                         : 240 Kbps\nMaximum bit rate                 : 1 200 Kbps\nWidth                            : 480 pixels\nHeight                           : 224 pixels\nDisplay aspect ratio             : 2.2:1\nFrame rate mode                  : Constant\nFrame rate                       : 29.970 fps\nStandard                         : NTSC\nColor space                      : YUV\nChroma subsampling               : 4:2:0\nBit depth                        : 8 bits\nScan type                        : Progressive\nBits/(Pixel*Frame)               : 0.074\nStream size                      : 72.2 MiB (83%)\nLanguage                         : English\n\nAudio\nID                               : 2\nFormat                           : AAC\nFormat/Info                      : Advanced Audio Codec\nFormat profile                   : LC\nCodec ID                         : 40\nDuration                         : 42mn 9s\nBit rate mode                    : Constant\nBit rate                         : 48.0 Kbps\nChannel(s)                       : 2 channels\nChannel positions                : Front: L R\nSampling rate                    : 24.0 KHz\nCompression mode                 : Lossy\nStream size                      : 14.5 MiB (17%)\nLanguage                         : English\n\nxxxxxxxxxxxxxxxxxxxxxxxxxxxxxxxxxxxxxxxxxxxxxxxxxxxxxxxxxxxxxxxxxxxxxxxxxxxxxxxx\n","torrent":{"xt":"urn:btih:e2d4852f1e37af106f0f6134cd5ba0f916a40090","amp;dn":"Illegal.Everything.with.John.Stossel.%282012%29.HDTV.272p.H264.AAC-k","amp;tr":["udp%3A%2F%2Ftracker.openbittorrent.com%3A80","udp%3A%2F%2Fopen.demonii.com%3A1337","udp%3A%2F%2Ftracker.coppersurfer.tk%3A6969","udp%3A%2F%2Fexodus.desync.com%3A6969"],"infoHash":"e2d4852f1e37af106f0f6134cd5ba0f916a40090","infoHashBuffer":{"type":"Buffer","data":[226,212,133,47,30,55,175,16,111,15,97,52,205,91,160,249,22,164,0,144]},"announce":[],"urlList":[]}}